<svg xmlns="http://www.w3.org/2000/svg" xmlns:xlink="http://www.w3.org/1999/xlink" width="500" zoomAndPan="magnify" viewBox="0 0 375 225" height="300" preserveAspectRatio="xMidYMid meet" version="1.0"><defs><clipPath id="f38b292832"><path d="M 108 19.488281 L 288 19.488281 L 288 71 L 108 71 Z M 108 19.488281 " clip-rule="nonzero"/></clipPath><clipPath id="ff0540bdb8"><path d="M 52.210938 78 L 322.960938 78 L 322.960938 205.488281 L 52.210938 205.488281 Z M 52.210938 78 " clip-rule="nonzero"/></clipPath></defs><path fill="#f28c28" d="M 281.976562 69.886719 C 282.285156 70.078125 282.550781 70.308594 282.789062 70.582031 L 264.910156 70.582031 L 276.226562 68.609375 C 278.269531 68.261719 280.273438 68.6875 281.976562 69.886719 " fill-opacity="1" fill-rule="nonzero"/><path fill="#f28c28" d="M 309.847656 70.582031 L 291.898438 70.582031 C 290.816406 67.765625 288.921875 65.332031 286.414062 63.59375 C 283.054688 61.207031 279 60.28125 274.871094 61.011719 L 252.058594 64.945312 C 249.972656 65.332031 248.542969 67.335938 248.890625 69.421875 C 248.964844 69.847656 249.121094 70.234375 249.3125 70.582031 L 162.914062 70.582031 L 268.464844 52.296875 L 292.785156 48.050781 C 292.976562 48.050781 293.171875 48.007812 293.398438 48.007812 L 305.5625 45.890625 L 309.847656 70.582031 " fill-opacity="1" fill-rule="nonzero"/><g clip-path="url(#f38b292832)"><path fill="#f28c28" d="M 287.804688 41.109375 L 269.816406 44.230469 C 266.148438 38.832031 259.199219 36.167969 252.714844 38.097656 L 230.472656 44.65625 C 228.429688 45.273438 227.230469 47.394531 227.847656 49.441406 C 228.082031 50.171875 228.503906 50.789062 229.046875 51.289062 L 117.480469 70.582031 L 108.519531 70.582031 L 281.433594 19.542969 L 287.804688 41.109375 " fill-opacity="1" fill-rule="nonzero"/></g><path fill="#f28c28" d="M 189.480469 157.179688 L 189.480469 160.652344 C 189.480469 161.734375 188.628906 162.578125 187.546875 162.578125 C 186.46875 162.578125 185.617188 161.734375 185.617188 160.652344 L 185.617188 157.179688 C 183.648438 156.875 181.835938 155.988281 180.445312 154.671875 C 179.675781 153.941406 179.628906 152.742188 180.371094 151.972656 C 181.097656 151.199219 182.292969 151.160156 183.070312 151.898438 C 184.1875 152.933594 185.808594 153.511719 187.546875 153.511719 C 190.828125 153.511719 193.527344 151.351562 193.527344 148.691406 C 193.527344 146.027344 190.828125 143.871094 187.546875 143.871094 C 182.144531 143.871094 177.738281 139.972656 177.738281 135.191406 C 177.738281 130.945312 181.140625 127.441406 185.617188 126.671875 L 185.617188 123.195312 C 185.617188 122.117188 186.46875 121.265625 187.546875 121.265625 C 188.628906 121.265625 189.480469 122.117188 189.480469 123.195312 L 189.480469 126.671875 C 191.445312 127.011719 193.261719 127.898438 194.652344 129.214844 C 195.421875 129.945312 195.457031 131.136719 194.726562 131.914062 C 193.992188 132.683594 192.792969 132.71875 192.023438 131.988281 C 190.945312 130.988281 189.359375 130.367188 187.738281 130.332031 L 187.355469 130.332031 C 184.152344 130.40625 181.597656 132.570312 181.597656 135.191406 C 181.597656 137.851562 184.261719 140.011719 187.546875 140.011719 C 192.988281 140.011719 197.390625 143.90625 197.390625 148.691406 C 197.390625 152.898438 193.992188 156.410156 189.480469 157.179688 Z M 187.546875 117.984375 C 174.339844 117.984375 163.574219 128.75 163.574219 141.941406 C 163.574219 155.136719 174.339844 165.894531 187.546875 165.894531 C 200.75 165.894531 211.523438 155.136719 211.523438 141.941406 C 211.523438 128.75 200.75 117.984375 187.546875 117.984375 " fill-opacity="1" fill-rule="nonzero"/><g clip-path="url(#ff0540bdb8)"><path fill="#f28c28" d="M 301.429688 146.570312 C 298.882812 146.570312 296.796875 144.492188 296.796875 141.941406 C 296.796875 139.359375 298.882812 137.3125 301.429688 137.3125 C 304.019531 137.3125 306.0625 139.359375 306.0625 141.941406 C 306.0625 144.492188 304.019531 146.570312 301.429688 146.570312 Z M 305.292969 180.515625 C 305.292969 189.039062 298.378906 195.945312 289.847656 195.945312 L 266.6875 195.945312 C 264.5625 195.945312 262.824219 194.207031 262.824219 192.09375 C 262.824219 189.96875 264.5625 188.234375 266.6875 188.234375 L 289.847656 188.234375 C 294.09375 188.234375 297.574219 184.765625 297.574219 180.515625 L 297.574219 157.371094 C 297.574219 155.25 299.304688 153.511719 301.429688 153.511719 C 303.550781 153.511719 305.292969 155.25 305.292969 157.371094 Z M 187.546875 169.753906 C 172.179688 169.753906 159.710938 157.296875 159.710938 141.941406 C 159.710938 126.589844 172.179688 114.132812 187.546875 114.132812 C 202.910156 114.132812 215.378906 126.589844 215.378906 141.941406 C 215.378906 157.296875 202.910156 169.753906 187.546875 169.753906 Z M 205.226562 195.945312 L 169.863281 195.945312 C 167.746094 195.945312 166.007812 194.207031 166.007812 192.09375 C 166.007812 189.96875 167.746094 188.234375 169.863281 188.234375 L 205.226562 188.234375 C 207.347656 188.234375 209.089844 189.96875 209.089844 192.09375 C 209.089844 194.207031 207.347656 195.945312 205.226562 195.945312 Z M 108.410156 95.652344 L 85.242188 95.652344 C 81 95.652344 77.523438 99.121094 77.523438 103.367188 L 77.523438 126.507812 C 77.523438 128.632812 75.785156 130.367188 73.660156 130.367188 C 71.535156 130.367188 69.804688 128.632812 69.804688 126.507812 L 69.804688 103.367188 C 69.804688 94.839844 76.714844 87.933594 85.242188 87.933594 L 108.410156 87.933594 C 110.53125 87.933594 112.265625 89.671875 112.265625 91.792969 C 112.265625 93.917969 110.53125 95.652344 108.410156 95.652344 Z M 69.027344 141.941406 C 69.027344 139.359375 71.113281 137.3125 73.660156 137.3125 C 76.25 137.3125 78.292969 139.359375 78.292969 141.941406 C 78.292969 144.492188 76.25 146.570312 73.660156 146.570312 C 71.113281 146.570312 69.027344 144.492188 69.027344 141.941406 Z M 108.410156 195.945312 L 85.242188 195.945312 C 76.714844 195.945312 69.804688 189.039062 69.804688 180.515625 L 69.804688 157.371094 C 69.804688 155.25 71.535156 153.511719 73.660156 153.511719 C 75.785156 153.511719 77.523438 155.25 77.523438 157.371094 L 77.523438 180.515625 C 77.523438 184.765625 81 188.234375 85.242188 188.234375 L 108.410156 188.234375 C 110.53125 188.234375 112.265625 189.96875 112.265625 192.09375 C 112.265625 194.207031 110.53125 195.945312 108.410156 195.945312 Z M 169.863281 87.933594 L 205.226562 87.933594 C 207.347656 87.933594 209.089844 89.671875 209.089844 91.792969 C 209.089844 93.917969 207.347656 95.652344 205.226562 95.652344 L 169.863281 95.652344 C 167.746094 95.652344 166.007812 93.917969 166.007812 91.792969 C 166.007812 89.671875 167.746094 87.933594 169.863281 87.933594 Z M 266.6875 87.933594 L 289.847656 87.933594 C 298.378906 87.933594 305.292969 94.839844 305.292969 103.367188 L 305.292969 126.507812 C 305.292969 128.632812 303.550781 130.367188 301.429688 130.367188 C 299.304688 130.367188 297.574219 128.632812 297.574219 126.507812 L 297.574219 103.367188 C 297.574219 99.121094 294.09375 95.652344 289.847656 95.652344 L 266.6875 95.652344 C 264.5625 95.652344 262.824219 93.917969 262.824219 91.792969 C 262.824219 89.671875 264.5625 87.933594 266.6875 87.933594 Z M 52.46875 78.292969 L 52.46875 205.59375 L 322.703125 205.59375 L 322.703125 78.292969 L 52.46875 78.292969 " fill-opacity="1" fill-rule="nonzero"/></g><path fill="#f28c28" d="M 187.738281 130.332031 C 187.664062 130.367188 187.621094 130.367188 187.546875 130.367188 C 187.46875 130.367188 187.429688 130.367188 187.355469 130.332031 L 187.738281 130.332031 " fill-opacity="1" fill-rule="nonzero"/></svg>