<svg xmlns="http://www.w3.org/2000/svg" xmlns:xlink="http://www.w3.org/1999/xlink" width="500" zoomAndPan="magnify" viewBox="0 0 375 225" height="300" preserveAspectRatio="xMidYMid meet" version="1.0"><defs><g/><clipPath id="ba5bc488ba"><path d="M 27 75.535156 L 99 75.535156 L 99 96 L 27 96 Z M 27 75.535156 " clip-rule="nonzero"/></clipPath><clipPath id="e72c35fea7"><path d="M 5 99 L 112.203125 99 L 112.203125 149.785156 L 5 149.785156 Z M 5 99 " clip-rule="nonzero"/></clipPath></defs><path fill="#f28c28" d="M 95.96875 95.65625 C 96.089844 95.730469 96.195312 95.824219 96.289062 95.933594 L 89.207031 95.933594 L 93.691406 95.144531 C 94.5 95.007812 95.292969 95.175781 95.96875 95.65625 " fill-opacity="1" fill-rule="nonzero"/><path fill="#f28c28" d="M 107.007812 95.933594 L 99.898438 95.933594 C 99.46875 94.808594 98.71875 93.835938 97.726562 93.144531 C 96.394531 92.191406 94.789062 91.820312 93.152344 92.113281 L 84.117188 93.683594 C 83.289062 93.835938 82.722656 94.636719 82.863281 95.46875 C 82.890625 95.640625 82.953125 95.792969 83.03125 95.933594 L 48.804688 95.933594 L 90.617188 88.632812 L 100.25 86.9375 C 100.328125 86.9375 100.402344 86.921875 100.492188 86.921875 L 105.3125 86.078125 L 107.007812 95.933594 " fill-opacity="1" fill-rule="nonzero"/><g clip-path="url(#ba5bc488ba)"><path fill="#f28c28" d="M 98.277344 84.167969 L 91.152344 85.414062 C 89.699219 83.257812 86.945312 82.195312 84.378906 82.964844 L 75.566406 85.585938 C 74.757812 85.828125 74.28125 86.675781 74.527344 87.492188 C 74.621094 87.785156 74.785156 88.03125 75 88.230469 L 30.808594 95.933594 L 27.257812 95.933594 L 95.753906 75.558594 L 98.277344 84.167969 " fill-opacity="1" fill-rule="nonzero"/></g><path fill="#f28c28" d="M 59.328125 130.503906 L 59.328125 131.890625 C 59.328125 132.320312 58.992188 132.65625 58.5625 132.65625 C 58.132812 132.65625 57.796875 132.320312 57.796875 131.890625 L 57.796875 130.503906 C 57.019531 130.378906 56.300781 130.027344 55.75 129.5 C 55.445312 129.210938 55.425781 128.730469 55.71875 128.425781 C 56.007812 128.113281 56.480469 128.097656 56.789062 128.394531 C 57.230469 128.808594 57.875 129.039062 58.5625 129.039062 C 59.863281 129.039062 60.929688 128.175781 60.929688 127.113281 C 60.929688 126.050781 59.863281 125.1875 58.5625 125.1875 C 56.421875 125.1875 54.675781 123.632812 54.675781 121.722656 C 54.675781 120.03125 56.023438 118.628906 57.796875 118.324219 L 57.796875 116.9375 C 57.796875 116.503906 58.132812 116.167969 58.5625 116.167969 C 58.992188 116.167969 59.328125 116.503906 59.328125 116.9375 L 59.328125 118.324219 C 60.109375 118.460938 60.824219 118.8125 61.375 119.339844 C 61.683594 119.632812 61.695312 120.105469 61.40625 120.417969 C 61.117188 120.722656 60.640625 120.738281 60.335938 120.445312 C 59.910156 120.046875 59.28125 119.800781 58.640625 119.785156 L 58.488281 119.785156 C 57.21875 119.816406 56.207031 120.679688 56.207031 121.722656 C 56.207031 122.785156 57.261719 123.648438 58.5625 123.648438 C 60.71875 123.648438 62.460938 125.203125 62.460938 127.113281 C 62.460938 128.792969 61.117188 130.195312 59.328125 130.503906 Z M 58.5625 114.855469 C 53.332031 114.855469 49.066406 119.152344 49.066406 124.417969 C 49.066406 129.6875 53.332031 133.980469 58.5625 133.980469 C 63.792969 133.980469 68.058594 129.6875 68.058594 124.417969 C 68.058594 119.152344 63.792969 114.855469 58.5625 114.855469 " fill-opacity="1" fill-rule="nonzero"/><g clip-path="url(#e72c35fea7)"><path fill="#f28c28" d="M 103.675781 126.265625 C 102.664062 126.265625 101.839844 125.4375 101.839844 124.417969 C 101.839844 123.386719 102.664062 122.570312 103.675781 122.570312 C 104.699219 122.570312 105.507812 123.386719 105.507812 124.417969 C 105.507812 125.4375 104.699219 126.265625 103.675781 126.265625 Z M 105.203125 139.816406 C 105.203125 143.222656 102.464844 145.976562 99.085938 145.976562 L 89.910156 145.976562 C 89.070312 145.976562 88.382812 145.285156 88.382812 144.4375 C 88.382812 143.59375 89.070312 142.898438 89.910156 142.898438 L 99.085938 142.898438 C 100.769531 142.898438 102.148438 141.515625 102.148438 139.816406 L 102.148438 130.578125 C 102.148438 129.730469 102.832031 129.039062 103.675781 129.039062 C 104.515625 129.039062 105.203125 129.730469 105.203125 130.578125 Z M 58.5625 135.523438 C 52.476562 135.523438 47.535156 130.550781 47.535156 124.417969 C 47.535156 118.292969 52.476562 113.316406 58.5625 113.316406 C 64.648438 113.316406 69.585938 118.292969 69.585938 124.417969 C 69.585938 130.550781 64.648438 135.523438 58.5625 135.523438 Z M 65.566406 145.976562 L 51.558594 145.976562 C 50.71875 145.976562 50.03125 145.285156 50.03125 144.4375 C 50.03125 143.59375 50.71875 142.898438 51.558594 142.898438 L 65.566406 142.898438 C 66.40625 142.898438 67.09375 143.59375 67.09375 144.4375 C 67.09375 145.285156 66.40625 145.976562 65.566406 145.976562 Z M 27.214844 105.941406 L 18.035156 105.941406 C 16.355469 105.941406 14.980469 107.328125 14.980469 109.019531 L 14.980469 118.257812 C 14.980469 119.105469 14.289062 119.800781 13.449219 119.800781 C 12.609375 119.800781 11.921875 119.105469 11.921875 118.257812 L 11.921875 109.019531 C 11.921875 105.617188 14.660156 102.859375 18.035156 102.859375 L 27.214844 102.859375 C 28.054688 102.859375 28.742188 103.554688 28.742188 104.402344 C 28.742188 105.25 28.054688 105.941406 27.214844 105.941406 Z M 11.613281 124.417969 C 11.613281 123.386719 12.441406 122.570312 13.449219 122.570312 C 14.476562 122.570312 15.285156 123.386719 15.285156 124.417969 C 15.285156 125.4375 14.476562 126.265625 13.449219 126.265625 C 12.441406 126.265625 11.613281 125.4375 11.613281 124.417969 Z M 27.214844 145.976562 L 18.035156 145.976562 C 14.660156 145.976562 11.921875 143.222656 11.921875 139.816406 L 11.921875 130.578125 C 11.921875 129.730469 12.609375 129.039062 13.449219 129.039062 C 14.289062 129.039062 14.980469 129.730469 14.980469 130.578125 L 14.980469 139.816406 C 14.980469 141.515625 16.355469 142.898438 18.035156 142.898438 L 27.214844 142.898438 C 28.054688 142.898438 28.742188 143.59375 28.742188 144.4375 C 28.742188 145.285156 28.054688 145.976562 27.214844 145.976562 Z M 51.558594 102.859375 L 65.566406 102.859375 C 66.40625 102.859375 67.09375 103.554688 67.09375 104.402344 C 67.09375 105.25 66.40625 105.941406 65.566406 105.941406 L 51.558594 105.941406 C 50.71875 105.941406 50.03125 105.25 50.03125 104.402344 C 50.03125 103.554688 50.71875 102.859375 51.558594 102.859375 Z M 89.910156 102.859375 L 99.085938 102.859375 C 102.464844 102.859375 105.203125 105.617188 105.203125 109.019531 L 105.203125 118.257812 C 105.203125 119.105469 104.515625 119.800781 103.675781 119.800781 C 102.832031 119.800781 102.148438 119.105469 102.148438 118.257812 L 102.148438 109.019531 C 102.148438 107.328125 100.769531 105.941406 99.085938 105.941406 L 89.910156 105.941406 C 89.070312 105.941406 88.382812 105.25 88.382812 104.402344 C 88.382812 103.554688 89.070312 102.859375 89.910156 102.859375 Z M 5.054688 99.011719 L 5.054688 149.828125 L 112.101562 149.828125 L 112.101562 99.011719 L 5.054688 99.011719 " fill-opacity="1" fill-rule="nonzero"/></g><path fill="#f28c28" d="M 58.640625 119.785156 C 58.609375 119.800781 58.59375 119.800781 58.5625 119.800781 C 58.53125 119.800781 58.515625 119.800781 58.488281 119.785156 L 58.640625 119.785156 " fill-opacity="1" fill-rule="nonzero"/><g fill="#f28c28" fill-opacity="1"><g transform="translate(116.250968, 137.279949)"><g><path d="M 4.078125 -2.75 C 4.160156 -2.945312 4.226562 -3.644531 4.28125 -4.84375 C 4.34375 -6.050781 4.375 -7.488281 4.375 -9.15625 L 4.375 -15.234375 C 4.375 -16.984375 4.34375 -18.460938 4.28125 -19.671875 C 4.226562 -20.878906 4.160156 -21.550781 4.078125 -21.6875 L 1.421875 -22.40625 L 1.546875 -24.4375 L 13.359375 -24.4375 C 16.304688 -24.4375 18.492188 -23.953125 19.921875 -22.984375 C 21.347656 -22.015625 22.0625 -20.546875 22.0625 -18.578125 C 22.0625 -17.046875 21.398438 -15.765625 20.078125 -14.734375 C 18.765625 -13.710938 17.023438 -13.128906 14.859375 -12.984375 L 15.109375 -13.328125 C 17.753906 -13.210938 19.78125 -12.613281 21.1875 -11.53125 C 22.601562 -10.445312 23.3125 -8.988281 23.3125 -7.15625 C 23.3125 -4.914062 22.359375 -3.160156 20.453125 -1.890625 C 18.554688 -0.628906 15.90625 0 12.5 0 L 1.546875 0 L 1.421875 -2.078125 Z M 9.953125 -7.375 C 9.953125 -6.257812 9.960938 -5.289062 9.984375 -4.46875 C 10.015625 -3.65625 10.046875 -3.097656 10.078125 -2.796875 C 10.359375 -2.679688 10.75 -2.585938 11.25 -2.515625 C 11.75 -2.453125 12.207031 -2.421875 12.625 -2.421875 C 14.113281 -2.421875 15.269531 -2.785156 16.09375 -3.515625 C 16.914062 -4.253906 17.328125 -5.273438 17.328125 -6.578125 C 17.328125 -8.160156 16.878906 -9.316406 15.984375 -10.046875 C 15.097656 -10.785156 13.695312 -11.15625 11.78125 -11.15625 C 11.3125 -11.15625 10.894531 -11.15625 10.53125 -11.15625 C 10.175781 -11.15625 9.800781 -11.128906 9.40625 -11.078125 L 9.40625 -13.828125 C 9.820312 -13.796875 10.191406 -13.769531 10.515625 -13.75 C 10.835938 -13.738281 11.191406 -13.734375 11.578125 -13.734375 C 13.078125 -13.734375 14.203125 -14.101562 14.953125 -14.84375 C 15.703125 -15.582031 16.078125 -16.644531 16.078125 -18.03125 C 16.078125 -19.28125 15.707031 -20.269531 14.96875 -21 C 14.226562 -21.738281 13.097656 -22.109375 11.578125 -22.109375 L 10.03125 -22.109375 C 10.007812 -21.859375 9.988281 -21.269531 9.96875 -20.34375 C 9.957031 -19.414062 9.953125 -18.328125 9.953125 -17.078125 Z M 9.953125 -7.375 "/></g></g></g><g fill="#f28c28" fill-opacity="1"><g transform="translate(141.35539, 137.279949)"><g><path d="M 14.984375 0.375 C 12.429688 0.375 10.160156 -0.148438 8.171875 -1.203125 C 6.191406 -2.265625 4.640625 -3.71875 3.515625 -5.5625 C 2.390625 -7.40625 1.828125 -9.519531 1.828125 -11.90625 C 1.828125 -14.40625 2.390625 -16.625 3.515625 -18.5625 C 4.640625 -20.507812 6.203125 -22.035156 8.203125 -23.140625 C 10.203125 -24.253906 12.476562 -24.8125 15.03125 -24.8125 C 17.5 -24.8125 19.675781 -24.289062 21.5625 -23.25 C 23.457031 -22.207031 24.945312 -20.769531 26.03125 -18.9375 C 27.113281 -17.113281 27.65625 -14.976562 27.65625 -12.53125 C 27.65625 -10.394531 27.257812 -8.519531 26.46875 -6.90625 C 25.675781 -5.300781 24.644531 -3.957031 23.375 -2.875 C 22.113281 -1.789062 20.75 -0.976562 19.28125 -0.4375 C 17.8125 0.101562 16.378906 0.375 14.984375 0.375 Z M 15.328125 -2.75 C 16.597656 -2.75 17.664062 -3.085938 18.53125 -3.765625 C 19.394531 -4.441406 20.039062 -5.429688 20.46875 -6.734375 C 20.894531 -8.046875 21.109375 -9.632812 21.109375 -11.5 C 21.109375 -13.632812 20.832031 -15.492188 20.28125 -17.078125 C 19.726562 -18.660156 18.960938 -19.882812 17.984375 -20.75 C 17.015625 -21.625 15.863281 -22.0625 14.53125 -22.0625 C 12.613281 -22.0625 11.113281 -21.269531 10.03125 -19.6875 C 8.945312 -18.113281 8.40625 -15.921875 8.40625 -13.109375 C 8.40625 -11.054688 8.703125 -9.253906 9.296875 -7.703125 C 9.898438 -6.148438 10.710938 -4.9375 11.734375 -4.0625 C 12.765625 -3.1875 13.960938 -2.75 15.328125 -2.75 Z M 15.328125 -2.75 "/></g></g></g><g fill="#f28c28" fill-opacity="1"><g transform="translate(170.83123, 137.279949)"><g><path d="M 1.75 0 L 1.625 -2.078125 L 4.28125 -2.796875 C 4.28125 -2.960938 4.285156 -3.28125 4.296875 -3.75 C 4.316406 -4.21875 4.332031 -4.769531 4.34375 -5.40625 C 4.363281 -6.050781 4.378906 -6.707031 4.390625 -7.375 C 4.398438 -8.039062 4.40625 -8.632812 4.40625 -9.15625 L 4.40625 -15.234375 C 4.40625 -16.398438 4.390625 -17.445312 4.359375 -18.375 C 4.335938 -19.3125 4.304688 -20.070312 4.265625 -20.65625 C 4.222656 -21.238281 4.175781 -21.582031 4.125 -21.6875 L 1.453125 -22.359375 L 1.578125 -24.4375 L 12.375 -24.4375 C 15.5625 -24.4375 17.914062 -23.929688 19.4375 -22.921875 C 20.96875 -21.910156 21.734375 -20.304688 21.734375 -18.109375 C 21.734375 -16.753906 21.316406 -15.539062 20.484375 -14.46875 C 19.648438 -13.394531 18.503906 -12.550781 17.046875 -11.9375 C 15.585938 -11.332031 13.914062 -11.03125 12.03125 -11.03125 L 9.328125 -11.03125 L 9.328125 -13.453125 L 11.203125 -13.453125 C 12.585938 -13.453125 13.703125 -13.875 14.546875 -14.71875 C 15.398438 -15.5625 15.828125 -16.691406 15.828125 -18.109375 C 15.828125 -19.421875 15.472656 -20.414062 14.765625 -21.09375 C 14.054688 -21.769531 13.019531 -22.109375 11.65625 -22.109375 L 10.078125 -22.109375 C 10.046875 -22.023438 10.023438 -21.789062 10.015625 -21.40625 C 10.003906 -21.019531 10 -20.523438 10 -19.921875 C 10 -19.328125 10 -18.660156 10 -17.921875 C 10 -17.191406 10 -16.410156 10 -15.578125 L 10 -9.15625 C 10 -8.4375 10.003906 -7.644531 10.015625 -6.78125 C 10.023438 -5.925781 10.046875 -5.128906 10.078125 -4.390625 C 10.109375 -3.660156 10.132812 -3.128906 10.15625 -2.796875 L 12.5 -2.078125 L 12.375 0 Z M 23.484375 0.5 C 21.929688 0.5 20.550781 0.25 19.34375 -0.25 C 18.132812 -0.75 17.050781 -1.523438 16.09375 -2.578125 C 15.132812 -3.640625 14.28125 -4.972656 13.53125 -6.578125 L 11.15625 -11.703125 L 15.78125 -12.78125 L 20.734375 -5.875 C 21.316406 -5.0625 21.882812 -4.378906 22.4375 -3.828125 C 23 -3.273438 23.582031 -2.820312 24.1875 -2.46875 C 24.800781 -2.125 25.457031 -1.859375 26.15625 -1.671875 L 26.109375 0.25 C 25.660156 0.332031 25.222656 0.394531 24.796875 0.4375 C 24.367188 0.476562 23.929688 0.5 23.484375 0.5 Z M 23.484375 0.5 "/></g></g></g><g fill="#f28c28" fill-opacity="1"><g transform="translate(196.851569, 137.279949)"><g><path d="M -0.046875 0 L -0.171875 -2.078125 L 2 -2.75 L 10.453125 -23.234375 L 13.953125 -25.1875 L 23.53125 -2.75 L 25.6875 -2.078125 L 25.5625 0 L 14.40625 0 L 14.28125 -2.078125 L 16.953125 -2.75 L 14.703125 -8.125 L 14.234375 -9.53125 L 10.078125 -19.359375 L 11.28125 -19.03125 L 7.828125 -9.65625 L 7.453125 -8.40625 L 5.453125 -2.75 L 8.125 -2.078125 L 8 0 Z M 6.453125 -7.078125 L 6.453125 -9.90625 C 7.003906 -9.882812 7.628906 -9.851562 8.328125 -9.8125 C 9.023438 -9.769531 9.957031 -9.75 11.125 -9.75 C 12.226562 -9.75 13.144531 -9.769531 13.875 -9.8125 C 14.613281 -9.851562 15.25 -9.882812 15.78125 -9.90625 L 15.78125 -7.125 C 15.25 -7.125 14.609375 -7.132812 13.859375 -7.15625 C 13.117188 -7.1875 12.207031 -7.203125 11.125 -7.203125 C 9.976562 -7.203125 9.046875 -7.1875 8.328125 -7.15625 C 7.609375 -7.132812 6.984375 -7.109375 6.453125 -7.078125 Z M 6.453125 -7.078125 "/></g></g></g><g fill="#f28c28" fill-opacity="1"><g transform="translate(222.205786, 137.279949)"><g><path d="M 21.609375 -7.703125 L 21.609375 -14.078125 C 21.609375 -15.429688 21.597656 -16.65625 21.578125 -17.75 C 21.566406 -18.851562 21.539062 -19.75 21.5 -20.4375 C 21.457031 -21.132812 21.410156 -21.550781 21.359375 -21.6875 L 18.453125 -22.359375 L 18.578125 -24.4375 L 27.4375 -24.4375 L 27.5625 -22.359375 L 24.90625 -21.6875 C 24.875 -21.550781 24.835938 -21.144531 24.796875 -20.46875 C 24.753906 -19.789062 24.71875 -18.894531 24.6875 -17.78125 C 24.664062 -16.664062 24.65625 -15.429688 24.65625 -14.078125 L 24.65625 -6.15625 C 24.65625 -4.851562 24.65625 -3.707031 24.65625 -2.71875 C 24.65625 -1.738281 24.65625 -0.765625 24.65625 0.203125 L 22.109375 0.203125 L 5.375 -19.15625 L 7.578125 -19.15625 L 7.578125 -10.875 C 7.578125 -9.375 7.585938 -8.046875 7.609375 -6.890625 C 7.640625 -5.734375 7.675781 -4.800781 7.71875 -4.09375 C 7.757812 -3.394531 7.820312 -2.945312 7.90625 -2.75 L 10.78125 -2.078125 L 10.65625 0 L 1.671875 0 L 1.546875 -2.078125 L 4.171875 -2.75 C 4.222656 -2.945312 4.269531 -3.410156 4.3125 -4.140625 C 4.351562 -4.878906 4.382812 -5.835938 4.40625 -7.015625 C 4.4375 -8.191406 4.453125 -9.476562 4.453125 -10.875 L 4.453125 -16.40625 C 4.453125 -17.15625 4.429688 -17.90625 4.390625 -18.65625 C 4.347656 -19.40625 4.304688 -20.054688 4.265625 -20.609375 C 4.222656 -21.160156 4.191406 -21.519531 4.171875 -21.6875 L 1.546875 -22.359375 L 1.671875 -24.4375 L 8.25 -24.4375 L 23.3125 -7.703125 Z M 21.609375 -7.703125 "/></g></g></g><g fill="#f28c28" fill-opacity="1"><g transform="translate(251.2653, 137.279949)"><g/></g></g><g fill="#f28c28" fill-opacity="1"><g transform="translate(259.466911, 137.279949)"><g><path d="M 4.078125 -2.75 C 4.160156 -2.945312 4.226562 -3.644531 4.28125 -4.84375 C 4.34375 -6.050781 4.375 -7.488281 4.375 -9.15625 L 4.375 -15.234375 C 4.375 -16.984375 4.34375 -18.460938 4.28125 -19.671875 C 4.226562 -20.878906 4.160156 -21.550781 4.078125 -21.6875 L 1.421875 -22.40625 L 1.546875 -24.4375 L 13.359375 -24.4375 C 16.304688 -24.4375 18.492188 -23.953125 19.921875 -22.984375 C 21.347656 -22.015625 22.0625 -20.546875 22.0625 -18.578125 C 22.0625 -17.046875 21.398438 -15.765625 20.078125 -14.734375 C 18.765625 -13.710938 17.023438 -13.128906 14.859375 -12.984375 L 15.109375 -13.328125 C 17.753906 -13.210938 19.78125 -12.613281 21.1875 -11.53125 C 22.601562 -10.445312 23.3125 -8.988281 23.3125 -7.15625 C 23.3125 -4.914062 22.359375 -3.160156 20.453125 -1.890625 C 18.554688 -0.628906 15.90625 0 12.5 0 L 1.546875 0 L 1.421875 -2.078125 Z M 9.953125 -7.375 C 9.953125 -6.257812 9.960938 -5.289062 9.984375 -4.46875 C 10.015625 -3.65625 10.046875 -3.097656 10.078125 -2.796875 C 10.359375 -2.679688 10.75 -2.585938 11.25 -2.515625 C 11.75 -2.453125 12.207031 -2.421875 12.625 -2.421875 C 14.113281 -2.421875 15.269531 -2.785156 16.09375 -3.515625 C 16.914062 -4.253906 17.328125 -5.273438 17.328125 -6.578125 C 17.328125 -8.160156 16.878906 -9.316406 15.984375 -10.046875 C 15.097656 -10.785156 13.695312 -11.15625 11.78125 -11.15625 C 11.3125 -11.15625 10.894531 -11.15625 10.53125 -11.15625 C 10.175781 -11.15625 9.800781 -11.128906 9.40625 -11.078125 L 9.40625 -13.828125 C 9.820312 -13.796875 10.191406 -13.769531 10.515625 -13.75 C 10.835938 -13.738281 11.191406 -13.734375 11.578125 -13.734375 C 13.078125 -13.734375 14.203125 -14.101562 14.953125 -14.84375 C 15.703125 -15.582031 16.078125 -16.644531 16.078125 -18.03125 C 16.078125 -19.28125 15.707031 -20.269531 14.96875 -21 C 14.226562 -21.738281 13.097656 -22.109375 11.578125 -22.109375 L 10.03125 -22.109375 C 10.007812 -21.859375 9.988281 -21.269531 9.96875 -20.34375 C 9.957031 -19.414062 9.953125 -18.328125 9.953125 -17.078125 Z M 9.953125 -7.375 "/></g></g></g><g fill="#f28c28" fill-opacity="1"><g transform="translate(284.571334, 137.279949)"><g><path d="M -0.046875 0 L -0.171875 -2.078125 L 2 -2.75 L 10.453125 -23.234375 L 13.953125 -25.1875 L 23.53125 -2.75 L 25.6875 -2.078125 L 25.5625 0 L 14.40625 0 L 14.28125 -2.078125 L 16.953125 -2.75 L 14.703125 -8.125 L 14.234375 -9.53125 L 10.078125 -19.359375 L 11.28125 -19.03125 L 7.828125 -9.65625 L 7.453125 -8.40625 L 5.453125 -2.75 L 8.125 -2.078125 L 8 0 Z M 6.453125 -7.078125 L 6.453125 -9.90625 C 7.003906 -9.882812 7.628906 -9.851562 8.328125 -9.8125 C 9.023438 -9.769531 9.957031 -9.75 11.125 -9.75 C 12.226562 -9.75 13.144531 -9.769531 13.875 -9.8125 C 14.613281 -9.851562 15.25 -9.882812 15.78125 -9.90625 L 15.78125 -7.125 C 15.25 -7.125 14.609375 -7.132812 13.859375 -7.15625 C 13.117188 -7.1875 12.207031 -7.203125 11.125 -7.203125 C 9.976562 -7.203125 9.046875 -7.1875 8.328125 -7.15625 C 7.609375 -7.132812 6.984375 -7.109375 6.453125 -7.078125 Z M 6.453125 -7.078125 "/></g></g></g><g fill="#f28c28" fill-opacity="1"><g transform="translate(309.925551, 137.279949)"><g><path d="M 21.609375 -7.703125 L 21.609375 -14.078125 C 21.609375 -15.429688 21.597656 -16.65625 21.578125 -17.75 C 21.566406 -18.851562 21.539062 -19.75 21.5 -20.4375 C 21.457031 -21.132812 21.410156 -21.550781 21.359375 -21.6875 L 18.453125 -22.359375 L 18.578125 -24.4375 L 27.4375 -24.4375 L 27.5625 -22.359375 L 24.90625 -21.6875 C 24.875 -21.550781 24.835938 -21.144531 24.796875 -20.46875 C 24.753906 -19.789062 24.71875 -18.894531 24.6875 -17.78125 C 24.664062 -16.664062 24.65625 -15.429688 24.65625 -14.078125 L 24.65625 -6.15625 C 24.65625 -4.851562 24.65625 -3.707031 24.65625 -2.71875 C 24.65625 -1.738281 24.65625 -0.765625 24.65625 0.203125 L 22.109375 0.203125 L 5.375 -19.15625 L 7.578125 -19.15625 L 7.578125 -10.875 C 7.578125 -9.375 7.585938 -8.046875 7.609375 -6.890625 C 7.640625 -5.734375 7.675781 -4.800781 7.71875 -4.09375 C 7.757812 -3.394531 7.820312 -2.945312 7.90625 -2.75 L 10.78125 -2.078125 L 10.65625 0 L 1.671875 0 L 1.546875 -2.078125 L 4.171875 -2.75 C 4.222656 -2.945312 4.269531 -3.410156 4.3125 -4.140625 C 4.351562 -4.878906 4.382812 -5.835938 4.40625 -7.015625 C 4.4375 -8.191406 4.453125 -9.476562 4.453125 -10.875 L 4.453125 -16.40625 C 4.453125 -17.15625 4.429688 -17.90625 4.390625 -18.65625 C 4.347656 -19.40625 4.304688 -20.054688 4.265625 -20.609375 C 4.222656 -21.160156 4.191406 -21.519531 4.171875 -21.6875 L 1.546875 -22.359375 L 1.671875 -24.4375 L 8.25 -24.4375 L 23.3125 -7.703125 Z M 21.609375 -7.703125 "/></g></g></g><g fill="#f28c28" fill-opacity="1"><g transform="translate(338.985065, 137.279949)"><g><path d="M 15.453125 0 L 15.28125 -2.078125 L 17.453125 -2.5 C 17.285156 -2.800781 17.109375 -3.082031 16.921875 -3.34375 C 16.742188 -3.613281 16.460938 -4 16.078125 -4.5 L 10.90625 -10.75 L 9.28125 -10.75 L 9.28125 -12.75 L 11.03125 -13.078125 L 19.609375 -21.90625 L 16.953125 -22.359375 L 17.078125 -24.4375 L 26.53125 -24.4375 L 26.65625 -22.28125 L 23.90625 -21.859375 L 14.734375 -13.65625 L 14.609375 -15.484375 L 22.65625 -5.875 C 23.320312 -5.125 23.847656 -4.519531 24.234375 -4.0625 C 24.617188 -3.601562 24.921875 -3.253906 25.140625 -3.015625 C 25.367188 -2.785156 25.550781 -2.597656 25.6875 -2.453125 L 27.8125 -2.125 L 27.8125 0 Z M 1.703125 0 L 1.578125 -2.078125 L 4.25 -2.75 C 4.300781 -2.945312 4.335938 -3.625 4.359375 -4.78125 C 4.390625 -5.945312 4.40625 -7.40625 4.40625 -9.15625 L 4.40625 -15.234375 C 4.40625 -16.398438 4.390625 -17.445312 4.359375 -18.375 C 4.335938 -19.3125 4.304688 -20.070312 4.265625 -20.65625 C 4.222656 -21.238281 4.175781 -21.582031 4.125 -21.6875 L 1.5 -22.359375 L 1.625 -24.4375 L 12.828125 -24.4375 L 12.953125 -22.359375 L 10.28125 -21.6875 C 10.226562 -21.550781 10.179688 -21.1875 10.140625 -20.59375 C 10.097656 -20 10.066406 -19.242188 10.046875 -18.328125 C 10.035156 -17.410156 10.03125 -16.378906 10.03125 -15.234375 L 10.03125 -9.15625 C 10.03125 -7.40625 10.050781 -5.945312 10.09375 -4.78125 C 10.132812 -3.625 10.171875 -2.945312 10.203125 -2.75 L 12.375 -2.078125 L 12.25 0 Z M 1.703125 0 "/></g></g></g></svg>