<svg xmlns="http://www.w3.org/2000/svg" xmlns:xlink="http://www.w3.org/1999/xlink" width="500" zoomAndPan="magnify" viewBox="0 0 375 225" height="300" preserveAspectRatio="xMidYMid meet" version="1.0"><defs><g/><clipPath id="20fac680c1"><path d="M 153 22.5 L 230 22.5 L 230 45 L 153 45 Z M 153 22.5 " clip-rule="nonzero"/></clipPath><clipPath id="1131a6438d"><path d="M 130.078125 47 L 244.828125 47 L 244.828125 101.25 L 130.078125 101.25 Z M 130.078125 47 " clip-rule="nonzero"/></clipPath></defs><path fill="#f28c28" d="M 227.460938 43.835938 C 227.589844 43.917969 227.703125 44.015625 227.804688 44.132812 L 220.226562 44.132812 L 225.023438 43.296875 C 225.890625 43.148438 226.738281 43.332031 227.460938 43.835938 " fill-opacity="1" fill-rule="nonzero"/><path fill="#f28c28" d="M 239.273438 44.132812 L 231.664062 44.132812 C 231.207031 42.9375 230.40625 41.910156 229.339844 41.175781 C 227.917969 40.164062 226.199219 39.769531 224.449219 40.082031 L 214.78125 41.746094 C 213.894531 41.910156 213.289062 42.757812 213.4375 43.640625 C 213.46875 43.820312 213.535156 43.984375 213.617188 44.132812 L 177 44.132812 L 221.734375 36.390625 L 232.042969 34.59375 C 232.125 34.59375 232.203125 34.574219 232.300781 34.574219 L 237.457031 33.679688 L 239.273438 44.132812 " fill-opacity="1" fill-rule="nonzero"/><g clip-path="url(#20fac680c1)"><path fill="#f28c28" d="M 229.929688 31.652344 L 222.308594 32.976562 C 220.75 30.691406 217.808594 29.5625 215.058594 30.378906 L 205.632812 33.15625 C 204.765625 33.417969 204.257812 34.316406 204.519531 35.183594 C 204.617188 35.492188 204.796875 35.753906 205.027344 35.964844 L 157.742188 44.132812 L 153.945312 44.132812 L 227.230469 22.523438 L 229.929688 31.652344 " fill-opacity="1" fill-rule="nonzero"/></g><path fill="#f28c28" d="M 188.257812 80.796875 L 188.257812 82.269531 C 188.257812 82.726562 187.898438 83.082031 187.4375 83.082031 C 186.980469 83.082031 186.621094 82.726562 186.621094 82.269531 L 186.621094 80.796875 C 185.785156 80.667969 185.019531 80.292969 184.429688 79.734375 C 184.101562 79.425781 184.082031 78.917969 184.398438 78.59375 C 184.703125 78.265625 185.210938 78.25 185.542969 78.5625 C 186.015625 79 186.703125 79.242188 187.4375 79.242188 C 188.828125 79.242188 189.972656 78.328125 189.972656 77.203125 C 189.972656 76.074219 188.828125 75.160156 187.4375 75.160156 C 185.148438 75.160156 183.28125 73.511719 183.28125 71.488281 C 183.28125 69.691406 184.722656 68.207031 186.621094 67.878906 L 186.621094 66.410156 C 186.621094 65.953125 186.980469 65.589844 187.4375 65.589844 C 187.898438 65.589844 188.257812 65.953125 188.257812 66.410156 L 188.257812 67.878906 C 189.09375 68.023438 189.859375 68.398438 190.449219 68.957031 C 190.777344 69.265625 190.792969 69.769531 190.480469 70.097656 C 190.171875 70.425781 189.664062 70.441406 189.335938 70.132812 C 188.878906 69.707031 188.207031 69.445312 187.519531 69.429688 L 187.359375 69.429688 C 186 69.460938 184.917969 70.378906 184.917969 71.488281 C 184.917969 72.613281 186.046875 73.527344 187.4375 73.527344 C 189.746094 73.527344 191.609375 75.175781 191.609375 77.203125 C 191.609375 78.984375 190.171875 80.472656 188.257812 80.796875 Z M 187.4375 64.203125 C 181.839844 64.203125 177.277344 68.757812 177.277344 74.34375 C 177.277344 79.933594 181.839844 84.488281 187.4375 84.488281 C 193.035156 84.488281 197.601562 79.933594 197.601562 74.34375 C 197.601562 68.757812 193.035156 64.203125 187.4375 64.203125 " fill-opacity="1" fill-rule="nonzero"/><g clip-path="url(#1131a6438d)"><path fill="#f28c28" d="M 235.703125 76.304688 C 234.625 76.304688 233.742188 75.425781 233.742188 74.34375 C 233.742188 73.25 234.625 72.386719 235.703125 72.386719 C 236.800781 72.386719 237.667969 73.25 237.667969 74.34375 C 237.667969 75.425781 236.800781 76.304688 235.703125 76.304688 Z M 237.34375 90.675781 C 237.34375 94.285156 234.414062 97.210938 230.796875 97.210938 L 220.980469 97.210938 C 220.082031 97.210938 219.34375 96.472656 219.34375 95.578125 C 219.34375 94.679688 220.082031 93.945312 220.980469 93.945312 L 230.796875 93.945312 C 232.597656 93.945312 234.070312 92.476562 234.070312 90.675781 L 234.070312 80.878906 C 234.070312 79.980469 234.804688 79.242188 235.703125 79.242188 C 236.605469 79.242188 237.34375 79.980469 237.34375 80.878906 Z M 187.4375 86.121094 C 180.925781 86.121094 175.640625 80.847656 175.640625 74.34375 C 175.640625 67.84375 180.925781 62.570312 187.4375 62.570312 C 193.949219 62.570312 199.234375 67.84375 199.234375 74.34375 C 199.234375 80.847656 193.949219 86.121094 187.4375 86.121094 Z M 194.933594 97.210938 L 179.945312 97.210938 C 179.046875 97.210938 178.308594 96.472656 178.308594 95.578125 C 178.308594 94.679688 179.046875 93.945312 179.945312 93.945312 L 194.933594 93.945312 C 195.832031 93.945312 196.570312 94.679688 196.570312 95.578125 C 196.570312 96.472656 195.832031 97.210938 194.933594 97.210938 Z M 153.898438 54.746094 L 144.078125 54.746094 C 142.28125 54.746094 140.808594 56.214844 140.808594 58.011719 L 140.808594 67.8125 C 140.808594 68.710938 140.070312 69.445312 139.171875 69.445312 C 138.269531 69.445312 137.535156 68.710938 137.535156 67.8125 L 137.535156 58.011719 C 137.535156 54.402344 140.464844 51.480469 144.078125 51.480469 L 153.898438 51.480469 C 154.796875 51.480469 155.53125 52.214844 155.53125 53.113281 C 155.53125 54.011719 154.796875 54.746094 153.898438 54.746094 Z M 137.207031 74.34375 C 137.207031 73.25 138.089844 72.386719 139.171875 72.386719 C 140.269531 72.386719 141.132812 73.25 141.132812 74.34375 C 141.132812 75.425781 140.269531 76.304688 139.171875 76.304688 C 138.089844 76.304688 137.207031 75.425781 137.207031 74.34375 Z M 153.898438 97.210938 L 144.078125 97.210938 C 140.464844 97.210938 137.535156 94.285156 137.535156 90.675781 L 137.535156 80.878906 C 137.535156 79.980469 138.269531 79.242188 139.171875 79.242188 C 140.070312 79.242188 140.808594 79.980469 140.808594 80.878906 L 140.808594 90.675781 C 140.808594 92.476562 142.28125 93.945312 144.078125 93.945312 L 153.898438 93.945312 C 154.796875 93.945312 155.53125 94.679688 155.53125 95.578125 C 155.53125 96.472656 154.796875 97.210938 153.898438 97.210938 Z M 179.945312 51.480469 L 194.933594 51.480469 C 195.832031 51.480469 196.570312 52.214844 196.570312 53.113281 C 196.570312 54.011719 195.832031 54.746094 194.933594 54.746094 L 179.945312 54.746094 C 179.046875 54.746094 178.308594 54.011719 178.308594 53.113281 C 178.308594 52.214844 179.046875 51.480469 179.945312 51.480469 Z M 220.980469 51.480469 L 230.796875 51.480469 C 234.414062 51.480469 237.34375 54.402344 237.34375 58.011719 L 237.34375 67.8125 C 237.34375 68.710938 236.605469 69.445312 235.703125 69.445312 C 234.804688 69.445312 234.070312 68.710938 234.070312 67.8125 L 234.070312 58.011719 C 234.070312 56.214844 232.597656 54.746094 230.796875 54.746094 L 220.980469 54.746094 C 220.082031 54.746094 219.34375 54.011719 219.34375 53.113281 C 219.34375 52.214844 220.082031 51.480469 220.980469 51.480469 Z M 130.1875 47.398438 L 130.1875 101.292969 L 244.722656 101.292969 L 244.722656 47.398438 L 130.1875 47.398438 " fill-opacity="1" fill-rule="nonzero"/></g><path fill="#f28c28" d="M 187.519531 69.429688 C 187.488281 69.445312 187.472656 69.445312 187.4375 69.445312 C 187.40625 69.445312 187.390625 69.445312 187.359375 69.429688 L 187.519531 69.429688 " fill-opacity="1" fill-rule="nonzero"/><g fill="#f28c28" fill-opacity="1"><g transform="translate(58.606854, 153.786668)"><g><path d="M 4.203125 -2.828125 C 4.285156 -3.035156 4.351562 -3.757812 4.40625 -5 C 4.46875 -6.25 4.5 -7.726562 4.5 -9.4375 L 4.5 -15.703125 C 4.5 -17.503906 4.46875 -19.023438 4.40625 -20.265625 C 4.351562 -21.515625 4.285156 -22.210938 4.203125 -22.359375 L 1.453125 -23.09375 L 1.59375 -25.203125 L 13.78125 -25.203125 C 16.8125 -25.203125 19.0625 -24.695312 20.53125 -23.6875 C 22.007812 -22.6875 22.75 -21.171875 22.75 -19.140625 C 22.75 -17.566406 22.066406 -16.25 20.703125 -15.1875 C 19.347656 -14.132812 17.554688 -13.535156 15.328125 -13.390625 L 15.578125 -13.734375 C 18.296875 -13.617188 20.382812 -13.003906 21.84375 -11.890625 C 23.300781 -10.773438 24.03125 -9.269531 24.03125 -7.375 C 24.03125 -5.0625 23.050781 -3.253906 21.09375 -1.953125 C 19.132812 -0.648438 16.394531 0 12.875 0 L 1.59375 0 L 1.453125 -2.140625 Z M 10.265625 -7.59375 C 10.265625 -6.445312 10.273438 -5.453125 10.296875 -4.609375 C 10.328125 -3.765625 10.359375 -3.1875 10.390625 -2.875 C 10.671875 -2.757812 11.066406 -2.664062 11.578125 -2.59375 C 12.097656 -2.519531 12.570312 -2.484375 13 -2.484375 C 14.550781 -2.484375 15.75 -2.863281 16.59375 -3.625 C 17.4375 -4.382812 17.859375 -5.4375 17.859375 -6.78125 C 17.859375 -8.414062 17.398438 -9.609375 16.484375 -10.359375 C 15.566406 -11.117188 14.117188 -11.5 12.140625 -11.5 C 11.660156 -11.5 11.234375 -11.5 10.859375 -11.5 C 10.484375 -11.5 10.097656 -11.472656 9.703125 -11.421875 L 9.703125 -14.25 C 10.128906 -14.21875 10.503906 -14.195312 10.828125 -14.1875 C 11.160156 -14.175781 11.53125 -14.171875 11.9375 -14.171875 C 13.476562 -14.171875 14.632812 -14.546875 15.40625 -15.296875 C 16.175781 -16.054688 16.5625 -17.148438 16.5625 -18.578125 C 16.5625 -19.867188 16.179688 -20.894531 15.421875 -21.65625 C 14.671875 -22.414062 13.507812 -22.796875 11.9375 -22.796875 L 10.34375 -22.796875 C 10.3125 -22.535156 10.289062 -21.925781 10.28125 -20.96875 C 10.269531 -20.007812 10.265625 -18.882812 10.265625 -17.59375 Z M 10.265625 -7.59375 "/></g></g></g><g fill="#f28c28" fill-opacity="1"><g transform="translate(84.491706, 153.786668)"><g><path d="M 15.453125 0.390625 C 12.816406 0.390625 10.472656 -0.148438 8.421875 -1.234375 C 6.378906 -2.328125 4.78125 -3.820312 3.625 -5.71875 C 2.46875 -7.625 1.890625 -9.8125 1.890625 -12.28125 C 1.890625 -14.851562 2.46875 -17.140625 3.625 -19.140625 C 4.78125 -21.140625 6.390625 -22.710938 8.453125 -23.859375 C 10.515625 -25.003906 12.863281 -25.578125 15.5 -25.578125 C 18.039062 -25.578125 20.285156 -25.039062 22.234375 -23.96875 C 24.179688 -22.894531 25.710938 -21.414062 26.828125 -19.53125 C 27.941406 -17.644531 28.5 -15.441406 28.5 -12.921875 C 28.5 -10.710938 28.085938 -8.78125 27.265625 -7.125 C 26.453125 -5.46875 25.394531 -4.078125 24.09375 -2.953125 C 22.789062 -1.835938 21.378906 -1 19.859375 -0.4375 C 18.347656 0.113281 16.878906 0.390625 15.453125 0.390625 Z M 15.796875 -2.828125 C 17.109375 -2.828125 18.207031 -3.175781 19.09375 -3.875 C 19.988281 -4.582031 20.65625 -5.609375 21.09375 -6.953125 C 21.539062 -8.296875 21.765625 -9.925781 21.765625 -11.84375 C 21.765625 -14.050781 21.476562 -15.96875 20.90625 -17.59375 C 20.332031 -19.226562 19.546875 -20.492188 18.546875 -21.390625 C 17.546875 -22.296875 16.359375 -22.75 14.984375 -22.75 C 13.003906 -22.75 11.457031 -21.929688 10.34375 -20.296875 C 9.226562 -18.671875 8.671875 -16.410156 8.671875 -13.515625 C 8.671875 -11.398438 8.976562 -9.539062 9.59375 -7.9375 C 10.207031 -6.332031 11.039062 -5.078125 12.09375 -4.171875 C 13.15625 -3.273438 14.390625 -2.828125 15.796875 -2.828125 Z M 15.796875 -2.828125 "/></g></g></g><g fill="#f28c28" fill-opacity="1"><g transform="translate(114.883871, 153.786668)"><g><path d="M 1.796875 0 L 1.671875 -2.140625 L 4.421875 -2.875 C 4.421875 -3.050781 4.425781 -3.378906 4.4375 -3.859375 C 4.457031 -4.347656 4.472656 -4.921875 4.484375 -5.578125 C 4.492188 -6.234375 4.503906 -6.90625 4.515625 -7.59375 C 4.535156 -8.28125 4.546875 -8.894531 4.546875 -9.4375 L 4.546875 -15.703125 C 4.546875 -16.910156 4.53125 -17.992188 4.5 -18.953125 C 4.476562 -19.910156 4.441406 -20.6875 4.390625 -21.28125 C 4.347656 -21.882812 4.300781 -22.242188 4.25 -22.359375 L 1.5 -23.046875 L 1.625 -25.203125 L 12.75 -25.203125 C 16.039062 -25.203125 18.472656 -24.675781 20.046875 -23.625 C 21.617188 -22.582031 22.40625 -20.929688 22.40625 -18.671875 C 22.40625 -17.265625 21.972656 -16.007812 21.109375 -14.90625 C 20.253906 -13.8125 19.078125 -12.945312 17.578125 -12.3125 C 16.078125 -11.6875 14.351562 -11.375 12.40625 -11.375 L 9.609375 -11.375 L 9.609375 -13.859375 L 11.546875 -13.859375 C 12.972656 -13.859375 14.125 -14.296875 15 -15.171875 C 15.875 -16.046875 16.3125 -17.210938 16.3125 -18.671875 C 16.3125 -20.015625 15.945312 -21.035156 15.21875 -21.734375 C 14.488281 -22.441406 13.421875 -22.796875 12.015625 -22.796875 L 10.390625 -22.796875 C 10.359375 -22.703125 10.332031 -22.457031 10.3125 -22.0625 C 10.300781 -21.664062 10.296875 -21.15625 10.296875 -20.53125 C 10.296875 -19.914062 10.296875 -19.226562 10.296875 -18.46875 C 10.296875 -17.71875 10.296875 -16.910156 10.296875 -16.046875 L 10.296875 -9.4375 C 10.296875 -8.695312 10.300781 -7.882812 10.3125 -7 C 10.332031 -6.113281 10.359375 -5.289062 10.390625 -4.53125 C 10.421875 -3.769531 10.445312 -3.21875 10.46875 -2.875 L 12.875 -2.140625 L 12.75 0 Z M 24.203125 0.515625 C 22.609375 0.515625 21.1875 0.257812 19.9375 -0.25 C 18.695312 -0.769531 17.582031 -1.570312 16.59375 -2.65625 C 15.601562 -3.75 14.722656 -5.125 13.953125 -6.78125 L 11.5 -12.0625 L 16.265625 -13.171875 L 21.375 -6.046875 C 21.976562 -5.222656 22.566406 -4.523438 23.140625 -3.953125 C 23.710938 -3.378906 24.3125 -2.910156 24.9375 -2.546875 C 25.5625 -2.191406 26.234375 -1.914062 26.953125 -1.71875 L 26.90625 0.25 C 26.445312 0.34375 25.992188 0.410156 25.546875 0.453125 C 25.109375 0.492188 24.660156 0.515625 24.203125 0.515625 Z M 24.203125 0.515625 "/></g></g></g><g fill="#f28c28" fill-opacity="1"><g transform="translate(141.713113, 153.786668)"><g><path d="M -0.046875 0 L -0.171875 -2.140625 L 2.0625 -2.828125 L 10.78125 -23.953125 L 14.375 -25.96875 L 24.25 -2.828125 L 26.484375 -2.140625 L 26.359375 0 L 14.84375 0 L 14.71875 -2.140625 L 17.46875 -2.828125 L 15.15625 -8.375 L 14.671875 -9.828125 L 10.390625 -19.953125 L 11.625 -19.609375 L 8.0625 -9.953125 L 7.6875 -8.671875 L 5.625 -2.828125 L 8.375 -2.140625 L 8.234375 0 Z M 6.65625 -7.296875 L 6.65625 -10.21875 C 7.226562 -10.1875 7.867188 -10.148438 8.578125 -10.109375 C 9.296875 -10.066406 10.253906 -10.046875 11.453125 -10.046875 C 12.597656 -10.046875 13.550781 -10.066406 14.3125 -10.109375 C 15.070312 -10.148438 15.722656 -10.1875 16.265625 -10.21875 L 16.265625 -7.34375 C 15.722656 -7.34375 15.066406 -7.351562 14.296875 -7.375 C 13.523438 -7.40625 12.578125 -7.421875 11.453125 -7.421875 C 10.285156 -7.421875 9.328125 -7.40625 8.578125 -7.375 C 7.835938 -7.351562 7.195312 -7.328125 6.65625 -7.296875 Z M 6.65625 -7.296875 "/></g></g></g><g fill="#f28c28" fill-opacity="1"><g transform="translate(167.855526, 153.786668)"><g><path d="M 22.28125 -7.9375 L 22.28125 -14.515625 C 22.28125 -15.910156 22.269531 -17.171875 22.25 -18.296875 C 22.238281 -19.429688 22.210938 -20.351562 22.171875 -21.0625 C 22.128906 -21.78125 22.078125 -22.210938 22.015625 -22.359375 L 19.015625 -23.046875 L 19.140625 -25.203125 L 28.28125 -25.203125 L 28.421875 -23.046875 L 25.671875 -22.359375 C 25.640625 -22.210938 25.601562 -21.789062 25.5625 -21.09375 C 25.519531 -20.394531 25.484375 -19.472656 25.453125 -18.328125 C 25.421875 -17.179688 25.40625 -15.910156 25.40625 -14.515625 L 25.40625 -6.359375 C 25.40625 -5.003906 25.40625 -3.816406 25.40625 -2.796875 C 25.40625 -1.785156 25.40625 -0.78125 25.40625 0.21875 L 22.796875 0.21875 L 5.53125 -19.75 L 7.8125 -19.75 L 7.8125 -11.203125 C 7.8125 -9.660156 7.820312 -8.296875 7.84375 -7.109375 C 7.875 -5.921875 7.910156 -4.960938 7.953125 -4.234375 C 8.003906 -3.503906 8.070312 -3.035156 8.15625 -2.828125 L 11.109375 -2.140625 L 10.984375 0 L 1.71875 0 L 1.59375 -2.140625 L 4.296875 -2.828125 C 4.347656 -3.035156 4.394531 -3.515625 4.4375 -4.265625 C 4.476562 -5.023438 4.515625 -6.015625 4.546875 -7.234375 C 4.578125 -8.453125 4.59375 -9.773438 4.59375 -11.203125 L 4.59375 -16.90625 C 4.59375 -17.6875 4.570312 -18.460938 4.53125 -19.234375 C 4.488281 -20.003906 4.441406 -20.675781 4.390625 -21.25 C 4.347656 -21.820312 4.316406 -22.191406 4.296875 -22.359375 L 1.59375 -23.046875 L 1.71875 -25.203125 L 8.5 -25.203125 L 24.03125 -7.9375 Z M 22.28125 -7.9375 "/></g></g></g><g fill="#f28c28" fill-opacity="1"><g transform="translate(197.818423, 153.786668)"><g/></g></g><g fill="#f28c28" fill-opacity="1"><g transform="translate(206.275, 153.786668)"><g><path d="M 4.203125 -2.828125 C 4.285156 -3.035156 4.351562 -3.757812 4.40625 -5 C 4.46875 -6.25 4.5 -7.726562 4.5 -9.4375 L 4.5 -15.703125 C 4.5 -17.503906 4.46875 -19.023438 4.40625 -20.265625 C 4.351562 -21.515625 4.285156 -22.210938 4.203125 -22.359375 L 1.453125 -23.09375 L 1.59375 -25.203125 L 13.78125 -25.203125 C 16.8125 -25.203125 19.0625 -24.695312 20.53125 -23.6875 C 22.007812 -22.6875 22.75 -21.171875 22.75 -19.140625 C 22.75 -17.566406 22.066406 -16.25 20.703125 -15.1875 C 19.347656 -14.132812 17.554688 -13.535156 15.328125 -13.390625 L 15.578125 -13.734375 C 18.296875 -13.617188 20.382812 -13.003906 21.84375 -11.890625 C 23.300781 -10.773438 24.03125 -9.269531 24.03125 -7.375 C 24.03125 -5.0625 23.050781 -3.253906 21.09375 -1.953125 C 19.132812 -0.648438 16.394531 0 12.875 0 L 1.59375 0 L 1.453125 -2.140625 Z M 10.265625 -7.59375 C 10.265625 -6.445312 10.273438 -5.453125 10.296875 -4.609375 C 10.328125 -3.765625 10.359375 -3.1875 10.390625 -2.875 C 10.671875 -2.757812 11.066406 -2.664062 11.578125 -2.59375 C 12.097656 -2.519531 12.570312 -2.484375 13 -2.484375 C 14.550781 -2.484375 15.75 -2.863281 16.59375 -3.625 C 17.4375 -4.382812 17.859375 -5.4375 17.859375 -6.78125 C 17.859375 -8.414062 17.398438 -9.609375 16.484375 -10.359375 C 15.566406 -11.117188 14.117188 -11.5 12.140625 -11.5 C 11.660156 -11.5 11.234375 -11.5 10.859375 -11.5 C 10.484375 -11.5 10.097656 -11.472656 9.703125 -11.421875 L 9.703125 -14.25 C 10.128906 -14.21875 10.503906 -14.195312 10.828125 -14.1875 C 11.160156 -14.175781 11.53125 -14.171875 11.9375 -14.171875 C 13.476562 -14.171875 14.632812 -14.546875 15.40625 -15.296875 C 16.175781 -16.054688 16.5625 -17.148438 16.5625 -18.578125 C 16.5625 -19.867188 16.179688 -20.894531 15.421875 -21.65625 C 14.671875 -22.414062 13.507812 -22.796875 11.9375 -22.796875 L 10.34375 -22.796875 C 10.3125 -22.535156 10.289062 -21.925781 10.28125 -20.96875 C 10.269531 -20.007812 10.265625 -18.882812 10.265625 -17.59375 Z M 10.265625 -7.59375 "/></g></g></g><g fill="#f28c28" fill-opacity="1"><g transform="translate(232.159852, 153.786668)"><g><path d="M -0.046875 0 L -0.171875 -2.140625 L 2.0625 -2.828125 L 10.78125 -23.953125 L 14.375 -25.96875 L 24.25 -2.828125 L 26.484375 -2.140625 L 26.359375 0 L 14.84375 0 L 14.71875 -2.140625 L 17.46875 -2.828125 L 15.15625 -8.375 L 14.671875 -9.828125 L 10.390625 -19.953125 L 11.625 -19.609375 L 8.0625 -9.953125 L 7.6875 -8.671875 L 5.625 -2.828125 L 8.375 -2.140625 L 8.234375 0 Z M 6.65625 -7.296875 L 6.65625 -10.21875 C 7.226562 -10.1875 7.867188 -10.148438 8.578125 -10.109375 C 9.296875 -10.066406 10.253906 -10.046875 11.453125 -10.046875 C 12.597656 -10.046875 13.550781 -10.066406 14.3125 -10.109375 C 15.070312 -10.148438 15.722656 -10.1875 16.265625 -10.21875 L 16.265625 -7.34375 C 15.722656 -7.34375 15.066406 -7.351562 14.296875 -7.375 C 13.523438 -7.40625 12.578125 -7.421875 11.453125 -7.421875 C 10.285156 -7.421875 9.328125 -7.40625 8.578125 -7.375 C 7.835938 -7.351562 7.195312 -7.328125 6.65625 -7.296875 Z M 6.65625 -7.296875 "/></g></g></g><g fill="#f28c28" fill-opacity="1"><g transform="translate(258.302265, 153.786668)"><g><path d="M 22.28125 -7.9375 L 22.28125 -14.515625 C 22.28125 -15.910156 22.269531 -17.171875 22.25 -18.296875 C 22.238281 -19.429688 22.210938 -20.351562 22.171875 -21.0625 C 22.128906 -21.78125 22.078125 -22.210938 22.015625 -22.359375 L 19.015625 -23.046875 L 19.140625 -25.203125 L 28.28125 -25.203125 L 28.421875 -23.046875 L 25.671875 -22.359375 C 25.640625 -22.210938 25.601562 -21.789062 25.5625 -21.09375 C 25.519531 -20.394531 25.484375 -19.472656 25.453125 -18.328125 C 25.421875 -17.179688 25.40625 -15.910156 25.40625 -14.515625 L 25.40625 -6.359375 C 25.40625 -5.003906 25.40625 -3.816406 25.40625 -2.796875 C 25.40625 -1.785156 25.40625 -0.78125 25.40625 0.21875 L 22.796875 0.21875 L 5.53125 -19.75 L 7.8125 -19.75 L 7.8125 -11.203125 C 7.8125 -9.660156 7.820312 -8.296875 7.84375 -7.109375 C 7.875 -5.921875 7.910156 -4.960938 7.953125 -4.234375 C 8.003906 -3.503906 8.070312 -3.035156 8.15625 -2.828125 L 11.109375 -2.140625 L 10.984375 0 L 1.71875 0 L 1.59375 -2.140625 L 4.296875 -2.828125 C 4.347656 -3.035156 4.394531 -3.515625 4.4375 -4.265625 C 4.476562 -5.023438 4.515625 -6.015625 4.546875 -7.234375 C 4.578125 -8.453125 4.59375 -9.773438 4.59375 -11.203125 L 4.59375 -16.90625 C 4.59375 -17.6875 4.570312 -18.460938 4.53125 -19.234375 C 4.488281 -20.003906 4.441406 -20.675781 4.390625 -21.25 C 4.347656 -21.820312 4.316406 -22.191406 4.296875 -22.359375 L 1.59375 -23.046875 L 1.71875 -25.203125 L 8.5 -25.203125 L 24.03125 -7.9375 Z M 22.28125 -7.9375 "/></g></g></g><g fill="#f28c28" fill-opacity="1"><g transform="translate(288.265162, 153.786668)"><g><path d="M 15.921875 0 L 15.75 -2.140625 L 17.984375 -2.578125 C 17.816406 -2.890625 17.640625 -3.179688 17.453125 -3.453125 C 17.265625 -3.722656 16.96875 -4.117188 16.5625 -4.640625 L 11.25 -11.078125 L 9.578125 -11.078125 L 9.578125 -13.140625 L 11.375 -13.484375 L 20.21875 -22.578125 L 17.46875 -23.046875 L 17.59375 -25.203125 L 27.34375 -25.203125 L 27.46875 -22.96875 L 24.640625 -22.53125 L 15.1875 -14.078125 L 15.0625 -15.96875 L 23.34375 -6.046875 C 24.03125 -5.273438 24.570312 -4.65625 24.96875 -4.1875 C 25.375 -3.71875 25.691406 -3.359375 25.921875 -3.109375 C 26.148438 -2.867188 26.335938 -2.675781 26.484375 -2.53125 L 28.671875 -2.1875 L 28.671875 0 Z M 1.765625 0 L 1.625 -2.140625 L 4.375 -2.828125 C 4.4375 -3.035156 4.476562 -3.738281 4.5 -4.9375 C 4.53125 -6.132812 4.546875 -7.632812 4.546875 -9.4375 L 4.546875 -15.703125 C 4.546875 -16.910156 4.53125 -17.992188 4.5 -18.953125 C 4.476562 -19.910156 4.441406 -20.6875 4.390625 -21.28125 C 4.347656 -21.882812 4.300781 -22.242188 4.25 -22.359375 L 1.546875 -23.046875 L 1.671875 -25.203125 L 13.21875 -25.203125 L 13.34375 -23.046875 L 10.609375 -22.359375 C 10.546875 -22.210938 10.492188 -21.832031 10.453125 -21.21875 C 10.410156 -20.601562 10.378906 -19.820312 10.359375 -18.875 C 10.347656 -17.9375 10.34375 -16.878906 10.34375 -15.703125 L 10.34375 -9.4375 C 10.34375 -7.632812 10.363281 -6.132812 10.40625 -4.9375 C 10.445312 -3.738281 10.484375 -3.035156 10.515625 -2.828125 L 12.75 -2.140625 L 12.625 0 Z M 1.765625 0 "/></g></g></g><g fill="#f28c28" fill-opacity="1"><g transform="translate(99.330315, 181.010717)"><g><path d="M 7.1875 0.246094 C 11.636719 0.246094 13.710938 -3.003906 13.710938 -6.714844 C 13.710938 -10.421875 11.636719 -13.65625 7.1875 -13.65625 C 2.757812 -13.65625 0.683594 -10.421875 0.683594 -6.714844 C 0.683594 -3.003906 2.757812 0.246094 7.1875 0.246094 Z M 7.1875 -2.019531 C 4.746094 -2.019531 3.320312 -3.917969 3.320312 -6.714844 C 3.320312 -9.492188 4.746094 -11.371094 7.1875 -11.371094 C 9.667969 -11.371094 11.074219 -9.492188 11.074219 -6.714844 C 11.074219 -3.917969 9.667969 -2.019531 7.1875 -2.019531 Z M 7.1875 -2.019531 "/></g></g></g><g fill="#f28c28" fill-opacity="1"><g transform="translate(115.499635, 181.010717)"><g><path d="M 3.726562 0 L 3.726562 -9.613281 L 9.210938 0 L 12.074219 0 L 12.074219 -13.410156 L 9.542969 -13.410156 L 9.542969 -3.8125 L 4.042969 -13.410156 L 1.195312 -13.410156 L 1.195312 0 Z M 3.726562 0 "/></g></g></g><g fill="#f28c28" fill-opacity="1"><g transform="translate(130.526622, 181.010717)"><g><path d="M 9.402344 0 L 9.402344 -2.265625 L 3.726562 -2.265625 L 3.726562 -13.410156 L 1.195312 -13.410156 L 1.195312 0 Z M 9.402344 0 "/></g></g></g><g fill="#f28c28" fill-opacity="1"><g transform="translate(141.880585, 181.010717)"><g><path d="M 3.726562 0 L 3.726562 -13.410156 L 1.195312 -13.410156 L 1.195312 0 Z M 3.726562 0 "/></g></g></g><g fill="#f28c28" fill-opacity="1"><g transform="translate(148.559798, 181.010717)"><g><path d="M 3.726562 0 L 3.726562 -9.613281 L 9.210938 0 L 12.074219 0 L 12.074219 -13.410156 L 9.542969 -13.410156 L 9.542969 -3.8125 L 4.042969 -13.410156 L 1.195312 -13.410156 L 1.195312 0 Z M 3.726562 0 "/></g></g></g><g fill="#f28c28" fill-opacity="1"><g transform="translate(163.586787, 181.010717)"><g><path d="M 10.140625 0 L 10.140625 -2.265625 L 3.726562 -2.265625 L 3.726562 -5.589844 L 9.472656 -5.589844 L 9.472656 -7.839844 L 3.726562 -7.839844 L 3.726562 -11.144531 L 10.140625 -11.144531 L 10.140625 -13.410156 L 1.195312 -13.410156 L 1.195312 0 Z M 10.140625 0 "/></g></g></g><g fill="#f28c28" fill-opacity="1"><g transform="translate(176.258833, 181.010717)"><g/></g></g><g fill="#f28c28" fill-opacity="1"><g transform="translate(182.727152, 181.010717)"><g><path d="M 6.730469 0 C 7.488281 0 9.191406 -0.105469 10.371094 -1.054688 C 11.054688 -1.632812 11.566406 -2.617188 11.566406 -3.902344 C 11.566406 -5.625 10.617188 -6.765625 8.894531 -7.046875 C 10.160156 -7.382812 10.878906 -8.523438 10.878906 -10.054688 C 10.878906 -11.003906 10.617188 -11.757812 10.054688 -12.320312 C 9.332031 -13.042969 8.15625 -13.410156 6.503906 -13.410156 L 1.195312 -13.410156 L 1.195312 0 Z M 3.726562 -11.144531 L 5.941406 -11.144531 C 6.871094 -11.144531 7.46875 -11.003906 7.855469 -10.667969 C 8.171875 -10.421875 8.332031 -10.035156 8.332031 -9.507812 C 8.332031 -8.417969 7.628906 -7.839844 6.34375 -7.839844 L 3.726562 -7.839844 Z M 3.726562 -5.78125 L 6.695312 -5.78125 C 7.75 -5.78125 9.015625 -5.660156 9.015625 -4.09375 C 9.015625 -3.460938 8.839844 -3.058594 8.523438 -2.792969 C 7.980469 -2.320312 7.101562 -2.265625 6.414062 -2.265625 L 3.726562 -2.265625 Z M 3.726562 -5.78125 "/></g></g></g><g fill="#f28c28" fill-opacity="1"><g transform="translate(196.752409, 181.010717)"><g><path d="M 2.777344 0 L 3.671875 -2.757812 L 8.789062 -2.757812 L 9.703125 0 L 12.355469 0 L 7.628906 -13.410156 L 4.851562 -13.410156 L 0.121094 0 Z M 6.238281 -10.652344 L 8.085938 -4.972656 L 4.394531 -4.972656 Z M 6.238281 -10.652344 "/></g></g></g><g fill="#f28c28" fill-opacity="1"><g transform="translate(210.98856, 181.010717)"><g><path d="M 3.726562 0 L 3.726562 -9.613281 L 9.210938 0 L 12.074219 0 L 12.074219 -13.410156 L 9.542969 -13.410156 L 9.542969 -3.8125 L 4.042969 -13.410156 L 1.195312 -13.410156 L 1.195312 0 Z M 3.726562 0 "/></g></g></g><g fill="#f28c28" fill-opacity="1"><g transform="translate(226.015552, 181.010717)"><g><path d="M 3.726562 0 L 3.726562 -6.222656 L 8.578125 0 L 11.722656 0 L 6.203125 -6.941406 L 11.546875 -13.410156 L 8.453125 -13.410156 L 3.726562 -7.453125 L 3.726562 -13.410156 L 1.195312 -13.410156 L 1.195312 0 Z M 3.726562 0 "/></g></g></g><g fill="#f28c28" fill-opacity="1"><g transform="translate(239.548735, 181.010717)"><g><path d="M 3.726562 0 L 3.726562 -13.410156 L 1.195312 -13.410156 L 1.195312 0 Z M 3.726562 0 "/></g></g></g><g fill="#f28c28" fill-opacity="1"><g transform="translate(246.227948, 181.010717)"><g><path d="M 3.726562 0 L 3.726562 -9.613281 L 9.210938 0 L 12.074219 0 L 12.074219 -13.410156 L 9.542969 -13.410156 L 9.542969 -3.8125 L 4.042969 -13.410156 L 1.195312 -13.410156 L 1.195312 0 Z M 3.726562 0 "/></g></g></g><g fill="#f28c28" fill-opacity="1"><g transform="translate(261.254934, 181.010717)"><g><path d="M 7.222656 0.246094 C 8.648438 0.246094 10.195312 -0.175781 11.125 -1.511719 L 11.125 0 L 13.429688 0 L 13.429688 -7.292969 L 7.945312 -7.292969 L 7.945312 -5.203125 L 10.914062 -5.203125 C 10.863281 -3.09375 9.542969 -2.019531 7.433594 -2.019531 C 4.691406 -2.019531 3.320312 -4.023438 3.320312 -6.730469 C 3.320312 -9.351562 4.640625 -11.390625 7.207031 -11.390625 C 8.980469 -11.390625 10.089844 -10.597656 10.527344 -9.210938 L 13.304688 -9.210938 C 12.761719 -11.863281 10.6875 -13.65625 7.222656 -13.65625 C 2.722656 -13.65625 0.683594 -10.371094 0.683594 -6.714844 C 0.683594 -3.058594 2.722656 0.246094 7.222656 0.246094 Z M 7.222656 0.246094 "/></g></g></g></svg>